<svg width="1200" height="700" viewBox="0 0 1200 700" fill="none" xmlns="http://www.w3.org/2000/svg">
  <rect width="1200" height="700" fill="#D5D0BA"/>
  <rect y="470" width="1200" height="230" fill="#7E8156"/>
  <rect x="610" y="120" width="280" height="300" rx="18" fill="#131313"/>
  <rect x="595" y="410" width="320" height="26" rx="8" fill="#70706C"/>
  <rect x="490" y="430" width="430" height="120" rx="12" fill="#B6B9B2"/>
  <rect x="560" y="455" width="135" height="70" rx="8" fill="#989B94"/>
  <rect x="70" y="80" width="350" height="330" rx="28" fill="#9C8454"/>
  <rect x="100" y="230" width="170" height="180" rx="85" fill="#F7F4E8"/>
  <rect x="160" y="250" width="24" height="110" rx="12" fill="#D8D0BF"/>
  <rect x="180" y="300" width="160" height="110" rx="0" fill="#0E0E0E"/>
  <rect x="190" y="238" width="120" height="62" rx="10" fill="#F2F1EA"/>
  <circle cx="240" cy="269" r="7" fill="#232323"/>
  <rect x="890" y="65" width="90" height="260" rx="18" fill="#F5F4EB"/>
  <rect x="925" y="20" width="22" height="80" rx="11" fill="#D7D4C8"/>
</svg>
